<svg width="512" height="512" viewBox="0 0 512 512" fill="none" xmlns="http://www.w3.org/2000/svg">
<rect width="512" height="512" fill="white"/>
<rect width="512" height="512" rx="139" fill="#282A36"/>
<path fill-rule="evenodd" clip-rule="evenodd" d="M295.89 297.338C286.145 315.464 275.029 336.143 263.107 360.922C89.5193 207.041 189.628 117.107 231.471 82L146 82C134.954 82 126 90.9543 126 102V310C126 376.274 179.726 430 246 430H266C332.274 430 386 376.274 386 310V102C386 90.9543 377.046 82 366 82L272.988 82C294.468 95.614 323.919 118.043 332.307 166.689C340.771 213.848 324.067 244.922 295.89 297.338ZM250.81 82L251.825 82C253.257 84.4051 256.199 90.4327 261.449 101.62C278.361 137.66 268.667 188.45 259.748 225.645C259.637 226.073 259.527 226.5 259.416 226.927C252.112 255.145 245.59 280.343 252.855 309.738C252.855 309.738 259.062 340.047 247.019 312.082C227.16 264.64 236.253 228.797 245.521 192.267L245.735 191.424C252.098 164.742 259.888 122.036 255.938 102.748C254.862 97.9083 253.625 93.1987 252.624 89.3864C251.757 86.0858 251.066 83.4578 250.81 82Z" fill="#F8F8F2"/>
</svg>
